<svg xmlns="http://www.w3.org/2000/svg" xmlns:xlink="http://www.w3.org/1999/xlink" width="500" zoomAndPan="magnify" viewBox="0 0 375 374.999991" height="500" preserveAspectRatio="xMidYMid meet" version="1.2"><defs><clipPath id="2361ab27b3"><rect x="0" width="64" y="0" height="10"/></clipPath></defs><g id="9366d585c3"><g style="fill:#231f20;fill-opacity:1;"><g transform="translate(80.471242, 249.946683)"><path style="stroke:none" d="M 14.078125 0.515625 C 12.253906 0.515625 10.566406 0.203125 9.015625 -0.421875 C 7.472656 -1.054688 6.125 -1.9375 4.96875 -3.0625 C 3.820312 -4.1875 2.925781 -5.503906 2.28125 -7.015625 C 1.644531 -8.535156 1.328125 -10.1875 1.328125 -11.96875 C 1.328125 -13.738281 1.644531 -15.378906 2.28125 -16.890625 C 2.925781 -18.410156 3.820312 -19.734375 4.96875 -20.859375 C 6.125 -21.992188 7.472656 -22.875 9.015625 -23.5 C 10.566406 -24.125 12.253906 -24.4375 14.078125 -24.4375 C 15.898438 -24.4375 17.585938 -24.125 19.140625 -23.5 C 20.691406 -22.875 22.035156 -21.992188 23.171875 -20.859375 C 24.316406 -19.734375 25.207031 -18.410156 25.84375 -16.890625 C 26.476562 -15.378906 26.796875 -13.738281 26.796875 -11.96875 C 26.796875 -10.1875 26.476562 -8.535156 25.84375 -7.015625 C 25.207031 -5.503906 24.316406 -4.1875 23.171875 -3.0625 C 22.035156 -1.9375 20.691406 -1.054688 19.140625 -0.421875 C 17.585938 0.203125 15.898438 0.515625 14.078125 0.515625 Z M 14.078125 -4.375 C 15.515625 -4.375 16.796875 -4.703125 17.921875 -5.359375 C 19.054688 -6.023438 19.945312 -6.925781 20.59375 -8.0625 C 21.25 -9.207031 21.578125 -10.507812 21.578125 -11.96875 C 21.578125 -13.40625 21.25 -14.695312 20.59375 -15.84375 C 19.945312 -17 19.054688 -17.90625 17.921875 -18.5625 C 16.796875 -19.226562 15.515625 -19.5625 14.078125 -19.5625 C 12.671875 -19.5625 11.394531 -19.226562 10.25 -18.5625 C 9.113281 -17.90625 8.210938 -17 7.546875 -15.84375 C 6.890625 -14.695312 6.5625 -13.40625 6.5625 -11.96875 C 6.5625 -10.53125 6.890625 -9.234375 7.546875 -8.078125 C 8.210938 -6.929688 9.113281 -6.023438 10.25 -5.359375 C 11.394531 -4.703125 12.671875 -4.375 14.078125 -4.375 Z M 14.078125 -4.375 "/></g></g><g style="fill:#231f20;fill-opacity:1;"><g transform="translate(114.076232, 249.946683)"><path style="stroke:none" d="M 17.921875 -23.9375 L 23.5625 -23.9375 L 14.53125 0 L 9.640625 0 L 0.28125 -23.9375 L 5.984375 -23.9375 L 12.03125 -7.015625 Z M 17.921875 -23.9375 "/></g></g><g style="fill:#231f20;fill-opacity:1;"><g transform="translate(143.544995, 249.946683)"><path style="stroke:none" d="M 18.625 0 L 16.953125 -4.546875 L 7.421875 -4.546875 L 5.78125 0 L 0.3125 0 L 9.671875 -23.9375 L 14.5625 -23.9375 L 24.234375 0 Z M 12.171875 -17.609375 L 9.0625 -9.0625 L 15.3125 -9.0625 Z M 12.171875 -17.609375 "/></g></g><g style="fill:#231f20;fill-opacity:1;"><g transform="translate(173.560694, 249.946683)"><path style="stroke:none" d="M 7.9375 -4.828125 L 17.09375 -4.828125 L 17.09375 0 L 2.734375 0 L 2.734375 -23.9375 L 7.9375 -23.9375 Z M 7.9375 -4.828125 "/></g></g><g style="fill:#231f20;fill-opacity:1;"><g transform="translate(196.876393, 249.946683)"><path style="stroke:none" d=""/></g></g><g style="fill:#231f20;fill-opacity:1;"><g transform="translate(210.518116, 249.946683)"><path style="stroke:none" d="M 19.25 -23.9375 L 19.25 -19.109375 L 12.578125 -19.109375 L 12.578125 0 L 7.390625 0 L 7.390625 -19.109375 L 0.75 -19.109375 L 0.75 -23.9375 Z M 19.25 -23.9375 "/></g></g><g style="fill:#231f20;fill-opacity:1;"><g transform="translate(235.953204, 249.946683)"><path style="stroke:none" d="M 2.734375 0 L 2.734375 -23.9375 L 7.9375 -23.9375 L 7.9375 0 Z M 2.734375 0 "/></g></g><g style="fill:#231f20;fill-opacity:1;"><g transform="translate(252.090333, 249.946683)"><path style="stroke:none" d="M 7.9375 -4.828125 L 17.09375 -4.828125 L 17.09375 0 L 2.734375 0 L 2.734375 -23.9375 L 7.9375 -23.9375 Z M 7.9375 -4.828125 "/></g></g><g style="fill:#231f20;fill-opacity:1;"><g transform="translate(275.406044, 249.946683)"><path style="stroke:none" d="M 7.9375 -4.828125 L 17.46875 -4.828125 L 17.46875 0 L 2.734375 0 L 2.734375 -23.9375 L 17.09375 -23.9375 L 17.09375 -19.140625 L 7.9375 -19.140625 L 7.9375 -14.421875 L 16.203125 -14.421875 L 16.203125 -9.75 L 7.9375 -9.75 Z M 7.9375 -4.828125 "/></g></g><g transform="matrix(1,0,0,1,158,260)"><g clip-path="url(#2361ab27b3)"><g style="fill:#231f20;fill-opacity:1;"><g transform="translate(1.039175, 7.243443)"><path style="stroke:none" d="M 2.625 -4.90625 C 3.25 -4.90625 3.738281 -4.753906 4.09375 -4.453125 C 4.457031 -4.148438 4.640625 -3.738281 4.640625 -3.21875 C 4.640625 -2.695312 4.457031 -2.285156 4.09375 -1.984375 C 3.738281 -1.691406 3.25 -1.546875 2.625 -1.546875 L 1.3125 -1.546875 L 1.3125 0 L 0.796875 0 L 0.796875 -4.90625 Z M 2.625 -2 C 3.101562 -2 3.46875 -2.101562 3.71875 -2.3125 C 3.976562 -2.53125 4.109375 -2.832031 4.109375 -3.21875 C 4.109375 -3.613281 3.976562 -3.914062 3.71875 -4.125 C 3.46875 -4.34375 3.101562 -4.453125 2.625 -4.453125 L 1.3125 -4.453125 L 1.3125 -2 Z M 2.625 -2 "/></g></g><g style="fill:#231f20;fill-opacity:1;"><g transform="translate(11.665198, 7.243443)"><path style="stroke:none" d="M 3.875 -1.3125 L 1.140625 -1.3125 L 0.546875 0 L 0.015625 0 L 2.25 -4.90625 L 2.765625 -4.90625 L 5 0 L 4.453125 0 Z M 3.6875 -1.734375 L 2.5 -4.359375 L 1.328125 -1.734375 Z M 3.6875 -1.734375 "/></g></g><g style="fill:#231f20;fill-opacity:1;"><g transform="translate(22.284225, 7.243443)"><path style="stroke:none" d="M 0.796875 -4.90625 L 1.3125 -4.90625 L 1.3125 -0.453125 L 4.0625 -0.453125 L 4.0625 0 L 0.796875 0 Z M 0.796875 -4.90625 "/></g></g><g style="fill:#231f20;fill-opacity:1;"><g transform="translate(32.007246, 7.243443)"><path style="stroke:none" d="M 3.875 -1.3125 L 1.140625 -1.3125 L 0.546875 0 L 0.015625 0 L 2.25 -4.90625 L 2.765625 -4.90625 L 5 0 L 4.453125 0 Z M 3.6875 -1.734375 L 2.5 -4.359375 L 1.328125 -1.734375 Z M 3.6875 -1.734375 "/></g></g><g style="fill:#231f20;fill-opacity:1;"><g transform="translate(42.626272, 7.243443)"><path style="stroke:none" d="M 2.921875 0.046875 C 2.441406 0.046875 2.003906 -0.0625 1.609375 -0.28125 C 1.222656 -0.5 0.914062 -0.796875 0.6875 -1.171875 C 0.46875 -1.554688 0.359375 -1.984375 0.359375 -2.453125 C 0.359375 -2.921875 0.46875 -3.34375 0.6875 -3.71875 C 0.914062 -4.101562 1.222656 -4.398438 1.609375 -4.609375 C 2.003906 -4.828125 2.445312 -4.9375 2.9375 -4.9375 C 3.300781 -4.9375 3.632812 -4.875 3.9375 -4.75 C 4.25 -4.632812 4.507812 -4.460938 4.71875 -4.234375 L 4.390625 -3.90625 C 4.015625 -4.289062 3.535156 -4.484375 2.953125 -4.484375 C 2.554688 -4.484375 2.195312 -4.394531 1.875 -4.21875 C 1.5625 -4.039062 1.316406 -3.796875 1.140625 -3.484375 C 0.960938 -3.179688 0.875 -2.835938 0.875 -2.453125 C 0.875 -2.066406 0.960938 -1.71875 1.140625 -1.40625 C 1.316406 -1.101562 1.5625 -0.863281 1.875 -0.6875 C 2.195312 -0.507812 2.554688 -0.421875 2.953125 -0.421875 C 3.535156 -0.421875 4.015625 -0.617188 4.390625 -1.015625 L 4.71875 -0.671875 C 4.507812 -0.441406 4.25 -0.265625 3.9375 -0.140625 C 3.625 -0.015625 3.285156 0.046875 2.921875 0.046875 Z M 2.921875 0.046875 "/></g></g><g style="fill:#231f20;fill-opacity:1;"><g transform="translate(53.259301, 7.243443)"><path style="stroke:none" d="M 4.265625 -0.453125 L 4.265625 0 L 0.796875 0 L 0.796875 -4.90625 L 4.15625 -4.90625 L 4.15625 -4.453125 L 1.3125 -4.453125 L 1.3125 -2.703125 L 3.84375 -2.703125 L 3.84375 -2.265625 L 1.3125 -2.265625 L 1.3125 -0.453125 Z M 4.265625 -0.453125 "/></g></g></g></g></g></svg>